 <svg  version="1.0" xmlns="http://www.w3.org/2000/svg"  width="300.000000pt" height="285.000000pt" viewBox="0 0 300.000000 285.000000"  preserveAspectRatio="xMidYMid meet">  <g transform="translate(0.000000,285.000000) scale(0.050000,-0.050000)" fill="#ff8000" stroke="none"> <path d="M2579 5575 c-81 -86 -171 -382 -231 -755 -16 -104 -34 -212 -40 -240 -59 -302 -59 -1043 1 -1274 l26 -103 -74 -13 c-41 -7 -105 -16 -143 -20 -37 -4 -87 -12 -111 -17 -24 -6 -87 -16 -140 -23 -93 -13 -303 -62 -367 -85 -16 -6 -43 -14 -60 -17 -50 -10 -247 -70 -290 -88 -22 -10 -62 -24 -90 -31 -99 -27 -433 -196 -570 -290 -372 -253 -492 -521 -375 -839 6 -16 14 -48 19 -69 173 -904 905 -1474 2046 -1594 134 -14 1391 -7 1550 9 1195 118 1617 383 1995 1254 26 60 66 185 157 491 66 223 -51 460 -344 695 -51 41 -102 74 -114 74 -11 0 -35 14 -53 31 -36 37 -417 220 -501 241 -31 8 -80 26 -109 41 -28 15 -66 27 -84 27 -17 0 -65 14 -104 30 -40 17 -79 29 -88 27 -8 -2 -28 2 -45 8 -72 27 -279 73 -380 85 -60 7 -137 21 -170 31 -110 33 -371 43 -406 15 -26 -22 -29 -21 -15 2 12 20 10 24 -9 12 -20 -13 -18 -22 11 -43 20 -15 31 -27 24 -27 -7 0 -1 -23 14 -50 30 -60 19 -202 -21 -259 -16 -22 -28 -30 -28 -17 0 13 -29 29 -65 36 -36 7 -86 37 -111 67 -45 52 -127 17 -92 -40 5 -9 -6 -10 -25 -3 -21 8 -26 16 -11 21 37 13 29 45 -11 45 -27 1 -29 5 -8 18 14 9 25 24 23 34 -2 9 7 20 19 24 12 4 20 -1 17 -12 -6 -20 2 -24 53 -24 19 0 25 12 18 32 -10 25 -16 26 -29 5 -16 -25 -26 -10 -20 28 3 20 -13 19 -55 -4 -21 -11 -47 -11 -64 0 -22 14 -23 18 -3 19 47 0 81 50 61 86 -12 22 -12 34 2 34 11 0 26 -24 34 -54 12 -49 15 -51 29 -15 12 30 15 32 17 6 0 -18 16 -38 34 -45 27 -11 29 -8 7 18 -24 29 -14 39 30 31 36 -7 -18 34 -60 46 -22 6 -11 9 24 6 35 -3 59 2 54 11 -6 9 -55 16 -109 16 -92 0 -110 -11 -102 -64 2 -8 -13 -9 -32 -2 -30 12 -31 9 -9 -18 21 -26 21 -34 0 -41 -21 -7 -20 -16 3 -43 25 -30 25 -37 0 -53 -19 -12 -20 -18 -5 -19 30 0 21 -128 -12 -168 -29 -35 -142 12 -142 59 0 16 -16 30 -35 31 -20 0 -24 5 -11 11 20 8 20 16 0 36 -13 15 -33 22 -44 16 -11 -6 -13 -4 -5 5 8 9 6 27 -5 40 -11 13 -22 48 -24 77 -3 32 -17 53 -35 53 -27 1 -28 3 -1 20 26 17 25 19 -5 20 -19 0 -35 9 -35 20 0 11 -35 20 -78 20 -70 0 -77 -4 -67 -43 9 -35 15 -38 33 -15 12 15 35 31 50 34 22 5 24 0 6 -21 -18 -22 -14 -39 20 -75 l44 -47 -44 12 c-24 6 -50 2 -57 -10 -8 -12 -4 -15 10 -7 15 9 23 -4 23 -38 0 -37 8 -48 25 -37 20 12 20 8 0 -16 -14 -17 -27 -55 -29 -84 -14 -170 -210 -9 -260 212 -13 58 -33 112 -45 120 -13 9 -2 20 26 28 36 10 43 22 34 55 -46 153 -52 355 -12 388 25 22 26 24 1 13 -24 -12 -25 -9 -6 11 22 24 2 90 -38 120 -26 20 -7 321 22 338 19 12 28 90 34 282 5 146 14 274 21 284 6 11 15 93 19 183 10 201 84 428 127 388 22 -20 24 -20 12 1 -16 28 21 84 55 84 12 0 4 -14 -17 -30 -22 -17 -30 -29 -19 -28 53 7 70 -6 70 -53 0 -36 -8 -47 -25 -36 -20 12 -20 8 0 -16 13 -17 19 -37 11 -44 -7 -7 0 -13 16 -13 32 0 71 -133 137 -470 22 -111 64 -268 94 -350 29 -83 52 -170 50 -195 -1 -25 5 -45 15 -45 30 0 44 -63 21 -92 -13 -14 -17 -36 -10 -47 22 -35 -6 -24 -49 19 -22 22 -31 40 -20 40 11 0 20 10 20 21 0 12 -9 16 -20 9 -11 -7 -18 9 -16 39 3 28 12 51 20 51 9 0 16 10 16 22 0 12 -13 17 -28 11 -31 -11 -59 33 -61 95 -2 55 -44 62 -71 12 -20 -37 -17 -45 19 -54 45 -12 55 -56 16 -74 -20 -9 -20 -15 -1 -23 19 -9 16 -25 -9 -65 -33 -53 -33 -53 4 -24 21 17 33 20 25 7 -7 -12 0 -34 16 -47 16 -13 24 -34 17 -45 -37 -60 -24 -115 25 -103 55 14 63 -14 17 -61 -18 -17 -24 -31 -14 -31 10 0 18 -13 18 -30 0 -16 -10 -30 -23 -30 -17 0 -17 -23 -2 -89 11 -48 29 -83 40 -76 10 6 13 -2 7 -20 -7 -18 1 -43 17 -57 43 -35 25 -63 -46 -68 -40 -3 -78 10 -109 37 -51 47 -69 93 -36 93 11 0 -1 22 -28 49 -32 32 -48 68 -44 100 3 28 -1 51 -9 51 -9 0 -20 16 -25 35 -6 19 -18 53 -26 75 -16 40 -16 40 31 0 l46 -40 -24 45 c-13 25 -32 45 -43 45 -10 0 -20 29 -20 65 -2 90 -43 200 -79 211 -16 5 -24 3 -16 -6 8 -8 5 -33 -7 -55 -11 -22 -23 -59 -26 -82 -3 -24 -12 -83 -21 -133 -13 -79 -12 -86 16 -64 19 16 35 18 43 6 6 -10 2 -25 -10 -33 -12 -7 -17 -24 -12 -38 5 -13 2 -37 -8 -52 -10 -17 -8 -33 5 -41 13 -8 15 -30 7 -51 -26 -63 -30 -189 -6 -174 14 9 16 -5 8 -40 -9 -34 -6 -53 9 -53 16 0 16 -9 -2 -30 -14 -16 -17 -31 -7 -31 9 -1 208 -1 441 -1 233 0 452 -8 486 -18 71 -20 70 5 -3 140 -21 39 -67 124 -103 190 -35 66 -79 147 -97 180 -41 73 -137 287 -137 303 0 6 -13 39 -28 74 -40 87 -119 336 -158 493 -78 315 -92 403 -104 620 -21 365 -103 491 -231 355z m471 -1660 c8 -25 13 -62 10 -82 -2 -21 5 -32 15 -26 10 6 44 -47 76 -118 32 -71 65 -129 73 -129 9 0 16 -10 16 -22 0 -12 19 -48 41 -80 23 -32 32 -58 19 -58 -12 0 -16 -11 -8 -23 10 -16 3 -19 -22 -10 -30 12 -32 9 -11 -16 14 -17 36 -24 48 -17 13 8 10 -3 -6 -22 -28 -34 -31 -32 -59 26 -16 34 -37 62 -46 62 -9 0 -16 17 -16 38 0 63 -22 102 -57 102 -24 1 -26 5 -8 16 18 12 14 23 -15 44 -22 16 -40 44 -40 63 0 19 -8 40 -19 46 -46 29 -78 128 -51 164 14 19 21 47 16 61 -6 14 -1 26 10 26 10 0 26 -20 34 -45z m849 -969 c0 8 26 3 56 -13 30 -15 66 -23 80 -19 14 5 25 2 25 -7 0 -9 38 -16 85 -14 47 1 111 -10 142 -25 32 -15 65 -23 73 -18 9 5 21 -4 28 -21 7 -20 3 -27 -13 -19 -14 7 -8 -1 14 -19 21 -17 46 -31 54 -31 9 0 11 -16 4 -35 -9 -29 -7 -30 10 -6 14 21 14 38 -1 55 -11 14 -13 26 -3 26 9 0 5 8 -10 18 -16 10 -24 29 -20 42 7 19 16 18 38 -4 16 -16 43 -29 59 -30 17 0 51 -7 78 -15 35 -11 43 -9 31 10 -10 17 -7 20 9 10 19 -11 17 -24 -8 -51 -19 -21 -25 -41 -13 -48 11 -7 24 -1 30 13 5 14 11 7 13 -15 3 -39 3 -39 18 -2 8 21 31 41 50 44 23 3 31 -5 24 -24 -6 -15 -3 -48 7 -73 l18 -45 4 50 c2 28 2 58 0 68 -2 11 8 10 23 -1 14 -11 47 -21 72 -22 25 -2 61 -19 80 -40 19 -20 30 -27 24 -15 -5 12 6 5 25 -16 19 -21 35 -29 35 -18 0 24 51 20 74 -5 9 -10 5 -11 -9 -3 -14 8 -25 5 -25 -7 0 -21 24 -28 81 -23 18 2 42 -19 55 -47 13 -29 34 -46 50 -40 30 12 101 -46 110 -91 12 -52 44 -72 64 -40 15 25 20 24 31 -6 7 -19 27 -34 44 -34 26 0 26 -5 2 -34 -15 -18 -17 -28 -4 -20 13 8 28 0 35 -17 6 -18 20 -27 30 -20 10 6 23 -2 29 -18 6 -17 2 -35 -9 -42 -13 -8 -11 -23 5 -43 38 -45 42 -95 5 -65 -18 16 -28 17 -28 3 0 -12 10 -28 22 -35 16 -10 14 -19 -5 -31 -22 -14 -22 -18 3 -20 17 -2 3 -9 -30 -16 -37 -9 -58 -25 -55 -43 4 -23 0 -22 -20 3 -14 17 -36 28 -49 23 -15 -5 -21 8 -16 35 6 32 0 41 -26 36 -57 -12 -85 28 -49 69 19 22 22 35 8 35 -13 0 -23 -10 -23 -23 0 -13 -17 -8 -40 13 -21 19 -33 45 -26 56 7 12 2 14 -12 5 -35 -21 -123 43 -109 79 6 17 1 30 -12 30 -13 0 -18 -9 -11 -20 7 -11 -2 -20 -19 -20 -17 0 -29 10 -26 22 3 13 -8 28 -23 33 -20 8 -25 0 -15 -25 12 -31 10 -32 -19 -9 -20 17 -24 30 -10 35 40 13 23 49 -18 38 -22 -6 -35 -2 -29 8 10 15 -18 22 -64 16 -33 -4 -43 53 -11 66 19 8 -1 11 -43 6 l-78 -8 11 66 c6 36 2 78 -7 94 -13 20 -19 7 -20 -42 -1 -38 -7 -59 -12 -45 -6 14 -19 20 -30 13 -10 -6 -30 -3 -43 8 -13 10 -44 17 -69 15 -25 -3 -45 4 -45 14 0 9 -8 12 -18 6 -10 -6 -23 4 -30 21 -7 18 -25 27 -42 21 -21 -8 -30 2 -32 33 0 24 -6 33 -11 19 -15 -36 -107 -32 -107 5 0 17 -9 30 -20 30 -11 0 -20 19 -20 41 0 28 -8 36 -25 25 -14 -8 -31 -16 -38 -16 -8 0 -21 -8 -30 -18 -10 -10 2 -13 28 -7 31 8 45 2 45 -17 0 -15 9 -28 20 -28 11 0 20 -9 20 -21 0 -14 -14 -13 -41 2 -42 22 -107 41 -154 44 -27 2 -36 35 -9 35 8 0 15 18 15 40 0 55 -6 51 -39 -25 -16 -36 -29 -53 -30 -39 -1 15 -17 42 -36 60 -31 32 -33 32 -21 1 16 -44 -35 -64 -66 -25 -14 16 -40 24 -59 18 -20 -6 -46 4 -62 25 -25 32 -25 33 7 8 19 -16 35 -20 35 -10 0 9 -19 29 -42 44 -23 14 -37 17 -30 6 7 -11 4 -26 -8 -33 -11 -7 -20 -2 -20 10 0 12 -7 18 -15 13 -9 -5 -33 3 -54 19 -34 24 -34 28 -5 28 19 0 34 9 34 20 0 11 -15 20 -33 20 -63 0 -11 23 66 29 42 4 84 -4 92 -16 9 -15 20 -5 28 26 13 45 15 46 29 10 8 -21 16 -32 17 -23z m-1692 5 c37 7 45 -2 49 -52 7 -85 -67 -118 -149 -66 -41 26 -50 28 -33 6 20 -25 17 -31 -16 -34 -30 -2 -37 6 -29 33 8 23 1 35 -17 35 -22 0 -24 -11 -10 -48 21 -56 6 -93 -28 -71 -37 23 -61 21 -97 -9 -27 -23 -34 -22 -44 3 -8 21 -2 26 21 18 22 -9 28 -5 18 11 -21 34 -79 29 -65 -7 23 -60 -102 -92 -156 -39 -17 18 -31 24 -31 14 0 -9 10 -27 21 -38 15 -15 13 -25 -9 -33 -17 -7 -36 -4 -42 6 -6 9 -35 5 -64 -10 -61 -32 -90 -23 -72 22 8 22 16 25 26 8 8 -13 13 3 12 35 -2 46 -10 57 -39 49 -23 -6 -28 -15 -14 -23 33 -21 4 -78 -56 -111 -29 -16 -41 -29 -27 -29 15 -1 21 -10 15 -20 -7 -11 -26 -14 -42 -8 -17 7 -29 4 -27 -6 7 -39 -4 -47 -37 -30 -19 10 -53 11 -75 2 -38 -15 -38 -16 5 -18 25 0 45 -9 45 -19 0 -21 -78 -5 -115 23 -14 11 -25 13 -25 5 0 -8 -13 -4 -30 10 -21 17 -30 18 -30 2 0 -12 10 -22 22 -22 16 0 15 -9 -2 -30 -20 -24 -20 -30 3 -32 21 -1 21 -3 1 -12 -21 -8 -21 -16 0 -43 21 -28 19 -27 -16 2 -39 33 -43 33 -82 -10 -80 -86 -156 -143 -184 -138 -18 4 -23 -5 -15 -25 11 -31 -17 -42 -83 -33 -21 3 -22 -6 -5 -38 18 -33 17 -41 -9 -41 -18 0 -26 -10 -19 -21 7 -12 -5 -26 -27 -32 -27 -7 -36 -22 -29 -49 5 -21 0 -38 -13 -38 -12 0 -22 9 -22 20 0 11 -10 20 -23 20 -13 0 -6 -19 15 -43 21 -24 27 -37 13 -29 -14 8 -25 4 -25 -9 0 -13 -14 -18 -32 -11 -24 9 -29 4 -20 -21 11 -27 8 -28 -17 -8 -16 13 -38 19 -48 13 -10 -6 -30 2 -44 19 -20 25 -19 28 6 18 17 -6 37 -2 44 10 7 11 4 21 -7 21 -11 0 -15 15 -8 33 8 22 5 29 -9 20 -12 -8 -28 -5 -35 7 -7 11 -1 20 14 21 17 0 13 10 -10 28 -21 15 -28 32 -17 39 11 7 34 -2 52 -20 18 -18 37 -28 43 -23 6 6 -12 28 -39 49 l-48 38 50 45 c28 24 45 50 38 57 -7 7 15 32 48 57 41 30 53 48 35 55 -18 8 -16 11 6 12 18 1 56 26 85 54 33 33 67 49 90 43 29 -8 36 -1 28 28 -5 20 0 37 13 37 12 0 22 -11 22 -23 0 -13 6 -18 13 -11 7 7 3 25 -10 40 -18 22 -11 25 35 19 33 -5 64 2 73 16 11 18 7 20 -13 8 -23 -14 -24 -11 -2 15 27 34 101 27 131 -12 11 -14 13 -10 7 9 -12 38 56 86 124 88 27 1 52 12 57 25 6 19 17 19 45 1 31 -19 44 -15 80 26 24 27 37 38 30 24 -8 -16 -1 -20 20 -12 17 6 27 17 21 23 -6 5 14 23 43 38 46 24 56 24 70 -2 18 -31 76 -22 76 11 0 11 -10 13 -23 5 -15 -9 -18 -5 -8 10 11 18 21 18 42 1 15 -12 38 -16 51 -8 16 10 19 7 8 -11 -18 -28 90 -11 110 18 5 8 48 15 93 15 46 0 99 12 119 28 26 22 36 23 43 4 5 -14 23 -25 42 -25 28 1 29 3 3 20 -16 11 -21 20 -9 20 11 0 40 -14 65 -32 45 -31 45 -30 35 25 -6 31 -6 46 0 34 6 -13 31 -20 56 -16z m-1287 -178 c0 -4 -65 -41 -145 -83 -619 -323 -784 -791 -332 -937 160 -52 174 -47 172 55 -4 298 450 620 1101 779 398 98 557 124 874 143 110 6 240 17 288 22 l88 11 -16 -66 c-26 -116 -23 -375 5 -386 76 -29 116 28 112 155 -3 68 0 159 6 202 l11 77 203 -13 c258 -18 532 -64 893 -151 617 -150 1220 -546 1220 -803 0 -39 8 -42 74 -31 316 51 397 319 185 610 l-81 113 73 -80 c142 -156 168 -256 136 -525 -47 -394 -1008 -286 -2257 253 -297 129 -347 139 -437 92 -72 -37 -101 -37 -210 1 -92 32 -248 6 -353 -59 -22 -13 -143 -68 -270 -121 -126 -54 -239 -105 -249 -114 -10 -9 -33 -17 -50 -17 -17 0 -58 -14 -91 -32 -304 -158 -1076 -287 -1375 -229 -126 24 -293 94 -297 125 -2 9 -5 23 -7 31 -98 375 63 638 554 906 135 73 175 90 175 72z m2221 -673 c125 -24 114 -16 127 -90 13 -67 -1 -130 -29 -130 -10 0 -13 14 -6 30 7 19 -1 30 -21 30 -41 0 -42 -52 0 -68 50 -19 63 -15 74 28 6 22 22 39 37 38 20 -1 21 -4 2 -11 -63 -26 -22 -78 85 -109 107 -32 110 -32 110 7 0 34 -10 38 -65 29 -36 -6 -54 -7 -40 -1 19 8 17 17 -5 40 -62 62 -39 146 35 125 268 -75 425 -154 438 -220 8 -36 30 -78 49 -92 56 -41 5 -30 -67 14 -77 47 -105 50 -105 12 0 -27 72 -65 150 -79 22 -4 83 -27 135 -51 53 -24 105 -38 116 -32 29 19 0 55 -34 42 -19 -8 -24 -3 -15 12 10 15 3 19 -20 10 -19 -8 -29 -6 -23 4 6 10 -3 23 -19 29 -32 13 -39 68 -14 108 12 18 49 12 155 -28 122 -45 207 -76 334 -120 19 -6 35 -24 35 -38 0 -15 16 -36 35 -47 32 -19 32 -21 2 -21 -19 -1 -38 -12 -42 -26 -7 -20 -22 -20 -72 -2 -56 21 -63 19 -63 -12 0 -44 97 -68 139 -34 23 19 26 17 16 -11 -17 -43 183 -111 209 -70 16 27 -100 77 -134 58 -11 -7 -8 3 7 22 15 18 23 46 17 61 -17 45 24 71 86 53 30 -9 137 -27 238 -41 l182 -25 0 -79 0 -80 -70 11 c-53 9 -70 4 -70 -17 0 -29 16 -33 130 -34 183 -2 230 5 230 37 0 24 -12 29 -50 20 -47 -12 -50 -8 -50 68 0 44 4 80 8 80 5 0 79 13 165 30 193 37 206 37 156 2 -21 -15 -91 -38 -154 -51 -92 -19 -115 -31 -115 -63 0 -31 9 -36 50 -26 43 11 50 6 50 -36 0 -61 -35 -96 -94 -96 -41 0 -45 -7 -36 -65 7 -42 4 -55 -7 -38 -14 22 -26 23 -56 4 -21 -13 -24 -20 -7 -16 16 5 41 -3 55 -17 28 -28 35 -76 9 -60 -9 5 -33 -9 -54 -33 -23 -28 -28 -46 -14 -50 17 -6 16 -15 -2 -34 -13 -15 -32 -22 -42 -16 -11 7 -14 -1 -8 -17 6 -16 -11 -45 -42 -67 -52 -39 -52 -39 -22 0 29 38 29 38 -15 1 -24 -20 -39 -45 -33 -55 6 -9 -4 -17 -21 -17 -17 0 -31 -8 -31 -18 0 -10 -14 -23 -31 -30 -17 -6 -26 -4 -20 6 6 10 -2 23 -18 29 -16 6 -31 3 -35 -7 -3 -11 -18 -11 -36 1 -27 17 -27 21 0 39 27 17 23 23 -13 18 -7 -1 -19 9 -27 22 -9 14 -15 3 -15 -27 0 -29 12 -63 28 -75 77 -64 -30 -205 -225 -297 -102 -48 -116 -50 -95 -16 10 17 4 17 -19 -2 -18 -15 -48 -22 -65 -15 -17 6 -26 4 -20 -6 6 -10 -16 -21 -49 -26 -77 -12 -82 -18 75 99 272 203 354 298 254 298 -20 0 -22 -7 -8 -24 14 -17 11 -28 -12 -36 -18 -7 -26 -4 -19 7 16 26 5 25 -54 -5 -28 -15 -46 -39 -41 -55 7 -25 5 -26 -12 -2 -11 16 -16 45 -12 66 4 22 -2 32 -14 24 -11 -7 -17 -34 -12 -59 5 -26 1 -58 -8 -73 -13 -21 -16 -21 -17 0 0 19 -10 20 -40 4 -28 -15 -40 -15 -40 0 0 12 13 26 29 32 16 7 23 25 16 43 -6 17 -3 26 7 20 10 -6 29 10 41 37 18 36 18 45 0 35 -13 -8 -6 5 14 28 39 45 30 85 -18 85 -26 0 -37 -38 -34 -115 0 -13 -7 -20 -16 -15 -8 6 -34 -19 -57 -55 -53 -85 -211 -234 -312 -295 -44 -26 -84 -54 -90 -61 -21 -27 -171 -55 -335 -61 -25 -1 -45 -11 -45 -23 0 -13 -9 -12 -26 2 -19 15 -41 14 -79 -6 -48 -25 -54 -24 -66 11 -6 21 -22 33 -34 25 -12 -8 -15 -4 -7 10 10 15 26 17 49 4 58 -30 103 12 53 50 -31 24 -41 25 -50 5 -14 -37 -59 -42 -95 -12 -26 22 -29 20 -17 -18 14 -45 9 -48 -118 -75 -44 -9 -52 -7 -30 8 25 17 23 20 -11 21 -23 0 -52 11 -65 24 -18 18 -32 15 -60 -11 -21 -18 -43 -27 -50 -20 -7 7 -19 -2 -25 -20 -10 -25 -18 -27 -40 -7 -91 81 -97 84 -83 48 7 -19 4 -34 -7 -34 -10 0 -19 14 -19 31 0 33 -75 6 -105 -39 -10 -15 -14 -14 -15 3 0 14 -10 25 -21 25 -12 0 -16 -8 -10 -19 6 -10 1 -25 -12 -33 -15 -9 -18 -5 -7 12 13 20 2 23 -47 14 -36 -8 -63 -5 -63 7 0 10 -18 19 -40 19 -22 0 -40 10 -40 22 0 12 -11 17 -25 13 -14 -5 -22 -25 -18 -45 5 -27 -2 -32 -30 -20 -21 8 -50 15 -67 15 -16 0 -41 9 -55 20 -16 13 -34 13 -50 1 -124 -94 -545 190 -707 478 l-62 110 35 73 c31 63 31 73 5 73 -20 0 -26 12 -18 35 11 31 9 31 -16 -2 -19 -24 -25 -61 -17 -108 8 -49 4 -67 -10 -58 -12 8 -28 5 -34 -5 -6 -11 -2 -25 9 -32 11 -7 15 -23 7 -35 -9 -14 -2 -17 18 -10 19 7 36 0 43 -17 7 -17 3 -25 -8 -18 -32 20 -23 -43 9 -70 26 -21 26 -28 0 -54 -16 -16 -23 -40 -16 -53 8 -13 6 -16 -5 -6 -10 9 -18 23 -18 31 0 28 -60 75 -85 67 -15 -5 -21 3 -14 21 14 35 -22 64 -41 34 -14 -23 -56 11 -75 60 -9 24 -12 23 -13 -5 -1 -19 -11 -35 -21 -35 -11 0 -15 16 -9 35 10 32 9 32 -18 -1 -23 -28 -33 -30 -42 -10 -6 14 -6 4 1 -24 11 -45 9 -47 -21 -22 -29 24 -37 23 -60 -8 -16 -23 -36 -30 -52 -20 -17 11 -21 8 -12 -7 8 -13 7 -23 -2 -23 -29 0 -61 94 -43 127 16 28 12 28 -36 3 -59 -30 -104 -19 -69 16 12 12 22 31 22 43 0 12 -9 8 -20 -9 -18 -27 -22 -27 -40 0 -11 17 -20 20 -20 8 0 -12 -13 -21 -29 -21 -16 0 -28 5 -28 11 9 81 -9 124 -63 152 -46 24 -60 45 -60 88 0 57 48 98 71 61 17 -28 54 0 41 32 -6 17 0 23 19 16 16 -6 24 -19 18 -29 -7 -10 11 -8 39 5 28 12 45 31 39 42 -7 11 -19 8 -30 -8 -12 -19 -21 -20 -32 -5 -8 12 -78 34 -155 48 -77 14 -171 38 -210 53 l-70 27 90 -11 c50 -6 128 -16 175 -22 69 -9 85 -5 85 21 0 22 -18 32 -55 32 -69 1 -89 15 -121 88 -33 74 -51 70 240 57 l254 -11 21 -60 c12 -33 21 -63 21 -67 0 -4 -27 -7 -59 -7 -45 0 -57 -7 -48 -30 14 -36 115 -39 272 -8 81 17 109 30 101 50 -12 32 -98 38 -116 8 -25 -40 -42 -18 -45 59 -2 59 6 82 31 90 35 11 322 86 396 104 32 8 45 -1 55 -36 21 -77 15 -92 -37 -105 -57 -15 -68 -72 -14 -72 20 0 54 13 75 29 22 17 54 30 73 30 61 1 173 65 163 93 -8 19 -24 21 -62 6 -59 -22 -84 1 -85 78 0 35 19 53 75 76 41 16 93 38 115 49 69 32 315 121 319 115 3 -3 16 -49 30 -101 27 -99 34 -105 78 -77 23 14 21 22 -10 39 -20 12 -28 22 -16 22 12 1 31 -9 43 -21 26 -26 73 -5 55 23 -6 11 -3 19 8 19 11 0 23 -10 27 -21 4 -12 22 -16 40 -8 57 22 19 73 -45 59 -64 -14 -112 97 -56 132 37 23 333 118 368 118 42 0 40 -171 -2 -188 -18 -6 -26 -3 -19 8 7 11 3 20 -9 20 -11 0 -21 -17 -21 -38 0 -33 9 -36 74 -21 40 9 79 16 85 15 67 -6 101 9 101 44 0 44 -29 53 -52 17 -9 -14 -5 -18 9 -9 13 8 23 5 23 -7 0 -24 -15 -25 -70 -1 -22 9 -29 18 -15 19 16 0 25 31 25 81 0 92 22 98 221 60z m-2766 -590 c21 -69 14 -84 -25 -55 -25 19 -37 125 -14 125 9 0 27 -31 39 -70z m921 -818 c115 -104 287 -240 359 -282 66 -39 93 -87 30 -53 -39 21 -47 23 -110 23 -36 1 -39 4 -15 20 17 11 20 20 7 20 -13 0 -39 6 -59 13 -23 10 -30 6 -20 -10 20 -32 5 -29 -96 18 -192 91 -297 226 -228 295 36 36 50 31 132 -44z m3084 -162 c9 5 12 -8 6 -30 -6 -22 -19 -40 -30 -40 -10 0 -13 -9 -6 -20 7 -11 3 -20 -9 -20 -11 0 -21 13 -21 29 0 18 -12 25 -30 18 -16 -6 -30 -1 -30 11 0 12 18 22 40 22 22 0 39 7 38 15 -5 32 6 54 15 30 6 -14 18 -21 27 -15z"/> <path d="M3900 2913 c0 -18 -10 -33 -21 -33 -12 0 -15 10 -7 23 9 14 5 18 -9 9 -38 -24 -26 -57 17 -46 22 6 40 2 40 -8 0 -10 -13 -18 -30 -18 -16 0 -30 -9 -30 -20 0 -11 8 -20 18 -20 28 0 60 49 55 85 -7 47 -33 69 -33 28z"/> <path d="M2545 2658 c38 -22 49 -98 14 -98 -12 0 -17 -8 -11 -17 6 -9 -40 -19 -102 -21 -61 -2 -119 -8 -129 -14 -9 -6 -17 1 -17 16 -1 20 -4 20 -18 -2 -10 -15 -28 -21 -40 -13 -12 7 -22 2 -22 -11 0 -14 -6 -19 -13 -11 -8 7 -31 -3 -52 -22 -37 -33 -39 -33 -32 3 5 26 -7 39 -38 45 -25 3 -45 -2 -45 -13 0 -11 16 -20 35 -20 22 0 27 -6 13 -15 -12 -8 -27 -28 -33 -45 -8 -20 -12 -15 -13 15 -2 53 -62 62 -62 10 0 -20 -7 -26 -15 -15 -26 35 -131 33 -117 -2 6 -16 4 -25 -6 -19 -10 6 -29 -3 -42 -19 -14 -17 -37 -30 -51 -30 -14 0 -29 -11 -34 -24 -6 -19 -11 -19 -23 0 -8 13 -5 24 7 24 28 0 27 74 -2 92 -16 10 -20 1 -12 -28 6 -24 5 -42 -2 -41 -49 6 -80 -8 -88 -41 -8 -30 -23 -37 -68 -29 -31 5 -72 11 -91 12 -18 2 -29 11 -23 19 5 9 -5 16 -22 16 -17 0 -31 -13 -31 -30 0 -16 9 -30 20 -30 11 0 20 -8 20 -18 0 -20 -38 -19 -72 3 -15 9 -20 -5 -15 -41 7 -46 5 -48 -11 -14 -16 33 -19 34 -21 6 0 -18 -10 -39 -21 -46 -11 -7 -15 1 -8 17 6 16 0 36 -14 44 -15 10 -19 7 -10 -8 9 -14 3 -18 -17 -11 -17 7 -31 2 -31 -10 0 -12 10 -22 21 -22 12 0 16 -9 9 -20 -7 -11 -32 -20 -56 -20 -35 1 -38 5 -15 19 21 13 12 18 -36 17 -35 -1 -69 -9 -73 -17 -5 -8 3 -13 19 -12 16 2 28 -1 26 -7 -1 -5 9 -29 21 -53 25 -46 -49 -47 -79 -1 -7 11 -19 0 -26 -23 -8 -25 -30 -43 -52 -43 -22 0 -39 -8 -39 -18 0 -31 64 -11 93 28 15 21 27 28 27 15 0 -12 -13 -35 -29 -51 -16 -16 -24 -34 -18 -40 6 -6 -10 -6 -36 1 -40 10 -43 8 -22 -19 22 -26 17 -30 -38 -29 -41 1 -67 -9 -72 -27 -6 -24 -4 -25 11 -3 15 21 21 20 31 -5 6 -18 2 -32 -10 -32 -12 0 -17 -17 -12 -38 11 -41 -55 -75 -76 -40 -7 10 -20 13 -31 7 -10 -6 -14 -19 -8 -29 6 -9 -5 -21 -25 -26 -19 -5 -10 -7 20 -5 30 2 55 -2 55 -10 0 -28 99 7 109 39 36 113 401 400 575 453 25 7 73 25 106 38 196 82 766 203 1035 221 96 6 189 16 206 23 38 15 28 52 -15 58 -78 12 -113 32 -103 60 8 20 2 26 -18 18 -17 -6 -44 3 -61 20 -17 17 -43 31 -58 30 -16 0 -13 -8 9 -21z"/> <path d="M3301 2561 c-15 -10 -47 -14 -72 -9 -54 10 -84 -45 -33 -59 19 -5 88 -16 154 -23 229 -24 399 -56 630 -118 61 -16 151 -40 200 -53 50 -12 117 -35 150 -49 33 -14 83 -32 110 -40 151 -45 468 -241 601 -371 34 -33 71 -54 84 -46 14 9 17 2 9 -19 -10 -26 -2 -33 33 -30 26 2 46 15 46 28 0 13 -13 19 -30 13 -19 -8 -25 -4 -15 12 9 14 5 22 -9 18 -13 -3 -26 21 -30 52 -5 46 0 54 27 44 26 -10 28 -8 11 10 -17 17 -34 17 -64 1 -58 -32 -77 -27 -32 7 37 28 37 30 3 30 -27 1 -33 11 -25 39 7 21 3 44 -8 51 -12 8 -16 1 -9 -18 8 -20 1 -31 -20 -31 -18 0 -32 14 -32 30 0 27 -24 39 -65 32 -8 -1 -15 7 -15 18 0 11 -10 20 -22 20 -12 0 -18 -12 -12 -27 6 -14 -1 -26 -15 -26 -14 0 -24 18 -23 41 2 32 14 41 52 37 44 -4 45 -2 10 13 -23 10 -55 9 -77 -2 -20 -11 -42 -13 -50 -5 -7 8 -2 18 12 23 30 11 33 59 5 76 -11 7 -15 -1 -8 -17 12 -33 -53 -36 -77 -3 -9 13 -14 12 -15 -3 0 -28 -76 -49 -91 -25 -6 10 3 18 21 18 18 0 27 9 20 20 -8 13 -25 13 -51 0 -32 -18 -36 -15 -25 15 12 32 10 32 -24 5 -32 -27 -35 -27 -26 0 6 20 -15 41 -62 64 -61 28 -73 29 -79 4 -3 -15 -14 -23 -25 -17 -10 7 -12 22 -4 35 8 14 -1 12 -20 -3 -19 -16 -34 -19 -34 -7 0 11 -22 18 -50 15 -27 -3 -50 3 -50 13 0 10 -11 13 -25 6 -14 -7 -9 0 11 16 32 26 32 31 3 42 -47 18 -69 15 -69 -9 0 -12 10 -15 23 -7 13 8 18 5 11 -6 -7 -11 -36 -16 -64 -11 -48 9 -49 12 -16 37 34 26 34 27 1 16 -22 -8 -35 -2 -35 14 0 15 -12 10 -29 -13 -17 -22 -30 -28 -30 -14 -1 27 -52 35 -66 10 -5 -8 -5 -3 -1 13 4 15 -9 39 -29 54 -43 33 -65 35 -65 7 0 -12 8 -16 19 -10 10 6 23 3 30 -7 6 -10 -3 -23 -21 -30 -47 -18 -72 -15 -58 8 8 13 -5 13 -40 0 -73 -28 -84 -25 -39 11 37 29 35 30 -31 18 -65 -12 -67 -11 -31 17 22 16 50 25 63 20 33 -12 55 28 25 46 -15 9 -18 5 -7 -12 12 -19 7 -23 -16 -14 -18 7 -38 3 -45 -8 -15 -24 -226 -19 -241 6 -6 9 -20 11 -32 4 -11 -7 -26 -3 -34 8 -8 13 -24 15 -41 5z"/> <path d="M2725 2416 c9 -23 0 -28 -39 -20 -29 5 -57 -1 -67 -17 -13 -22 -22 -22 -49 1 -27 23 -31 22 -26 -2 4 -20 -12 -27 -54 -25 -33 2 -49 -1 -35 -7 26 -10 36 -69 10 -62 -31 8 -145 -28 -145 -45 0 -10 -15 -12 -33 -5 -26 10 -31 5 -21 -22 10 -24 6 -30 -11 -19 -43 27 -73 24 -61 -5 5 -15 0 -28 -12 -28 -12 0 -22 9 -22 21 0 12 -12 10 -28 -5 -15 -14 -20 -29 -9 -33 10 -4 -11 -23 -47 -42 -56 -30 -74 -32 -125 -10 -68 29 -162 1 -109 -32 15 -9 21 -23 13 -31 -8 -7 -28 -2 -46 13 -28 23 -30 20 -19 -25 17 -67 -26 -96 -65 -44 -27 36 -28 35 -14 -12 12 -41 10 -46 -13 -28 -16 13 -49 15 -78 7 -42 -13 -44 -16 -10 -19 22 -1 56 -6 75 -10 42 -8 254 73 525 200 110 51 250 116 310 143 61 28 140 64 178 81 42 19 94 26 138 19 69 -11 70 -11 26 20 -24 17 -55 33 -68 35 -13 1 -37 11 -52 21 -21 13 -26 10 -17 -13z"/> <path d="M3173 2406 c-25 -25 -12 -46 28 -46 23 0 83 -18 135 -41 52 -23 117 -51 144 -62 28 -11 74 -32 103 -47 40 -19 59 -20 76 -3 18 17 22 17 17 -3 -5 -23 295 -162 547 -254 85 -31 111 -5 76 75 -18 40 -19 38 -9 -15 9 -49 6 -53 -11 -25 -15 25 -35 32 -71 23 -35 -9 -58 -2 -76 23 -16 22 -39 31 -60 23 -23 -9 -39 1 -51 34 -10 25 -34 51 -54 56 -21 5 -46 12 -57 15 -11 2 -32 14 -47 26 -19 17 -30 16 -42 -4 -13 -20 -20 -17 -29 12 -11 37 -63 53 -167 52 -26 -1 -39 8 -32 20 8 14 -3 17 -30 10 -24 -6 -39 -4 -33 4 13 22 -54 79 -101 86 -21 3 -50 13 -64 22 -45 28 -130 37 -114 12 10 -17 3 -17 -26 -2 -22 12 -45 16 -52 9z"/> <path d="M5249 1765 c5 -36 52 -55 96 -40 14 5 -3 23 -38 41 -59 31 -63 31 -58 -1z"/> <path d="M950 1700 l-100 -14 90 -1 c50 0 113 6 140 15 62 20 15 20 -130 0z"/> <path d="M2960 2052 c0 -38 10 -52 39 -52 44 0 61 -50 39 -113 -11 -32 -4 -53 27 -80 23 -20 36 -26 28 -13 -7 13 -5 29 7 36 11 7 21 3 23 -9 4 -40 8 -51 23 -76 19 -29 -9 -34 -37 -6 -12 12 -30 12 -49 -2 -25 -17 -24 -19 5 -10 19 7 35 4 35 -5 0 -20 73 -43 88 -27 6 5 -3 36 -19 68 -27 51 -27 57 0 57 17 0 31 -13 31 -30 0 -16 8 -30 18 -30 10 0 28 -25 39 -55 l20 -55 1 55 c2 64 -60 135 -118 135 -30 0 -40 13 -40 55 1 74 26 109 67 94 24 -10 33 -2 33 29 0 26 -13 43 -35 44 -19 0 -48 5 -65 10 -131 37 -160 34 -160 -20z"/> <path d="M2600 2012 c-142 -50 -181 -107 -64 -96 54 6 65 0 60 -27 -3 -19 7 -39 22 -45 17 -5 22 0 14 13 -8 13 -5 23 7 23 33 0 25 -36 -14 -60 -29 -18 -27 -20 15 -8 68 18 70 21 42 81 -26 58 -6 86 63 87 22 0 35 15 35 40 0 49 -17 48 -180 -8z"/> <path d="M3440 1951 c0 -19 26 -42 60 -54 33 -12 60 -30 60 -40 0 -11 9 -14 20 -7 12 7 14 -2 6 -22 -9 -24 -5 -30 11 -20 12 8 23 6 23 -5 0 -11 -10 -23 -21 -27 -15 -5 -14 -25 2 -66 13 -33 28 -49 33 -36 5 13 21 19 36 13 15 -6 23 -22 17 -37 -7 -20 2 -24 36 -15 42 11 44 8 20 -22 -30 -36 -11 -44 36 -14 20 13 40 6 65 -23 20 -23 36 -32 36 -20 0 15 15 17 45 5 25 -9 43 -27 40 -39 -3 -12 4 -22 15 -22 11 0 20 18 20 40 0 27 -13 40 -41 40 -22 0 -62 14 -89 32 -26 17 -58 26 -69 19 -12 -8 -21 -5 -21 5 0 11 -18 24 -40 30 -31 8 -40 27 -40 84 0 63 5 72 35 60 73 -30 105 -34 105 -13 0 33 -77 77 -211 121 -65 21 -135 45 -154 52 -25 10 -35 5 -35 -19z"/> <path d="M2050 1807 c-88 -38 -180 -77 -205 -87 -45 -19 -43 -91 3 -74 90 34 112 35 112 7 0 -48 55 -90 105 -79 37 8 40 5 15 -14 -27 -20 -27 -22 0 -14 17 5 28 19 25 32 -3 12 6 22 18 22 13 0 19 5 13 11 -6 5 -34 1 -63 -10 -34 -13 -56 -13 -64 0 -6 11 -5 18 5 16 52 -15 109 29 100 77 -8 42 2 55 57 78 51 21 63 36 55 68 -6 22 -12 39 -13 38 -2 -2 -75 -34 -163 -71z"/> <path d="M2932 1843 c-6 -10 -34 -13 -62 -8 -51 10 -69 -21 -27 -47 13 -8 18 -5 11 6 -8 13 8 16 41 10 36 -7 44 -14 24 -22 -16 -7 -31 -37 -33 -67 -3 -50 0 -53 38 -33 31 16 35 26 16 38 -42 26 -3 57 60 47 45 -7 57 -3 49 19 -7 18 -29 25 -60 19 -55 -11 -68 27 -14 41 32 8 32 10 1 12 -18 1 -38 -6 -44 -15z"/> <path d="M3320 1777 c0 -10 16 -17 35 -17 30 -1 31 -3 5 -20 -22 -14 -7 -18 53 -15 46 3 79 12 74 20 -6 9 -18 10 -28 4 -11 -6 -19 -3 -19 8 0 10 -27 22 -60 27 -33 5 -60 2 -60 -7z"/> <path d="M2225 1756 c-43 -21 -58 -57 -33 -81 24 -24 105 30 102 68 -3 42 -7 43 -69 13z"/> <path d="M2539 1753 c-28 -13 -49 -34 -47 -48 2 -14 4 -34 6 -45 1 -11 11 -20 21 -20 11 0 14 14 7 32 -6 18 1 40 16 50 43 27 58 21 44 -15 -9 -23 -5 -29 11 -19 65 40 14 98 -58 65z"/> <path d="M4100 1702 c0 -37 83 -75 118 -53 16 10 8 -129 -8 -146 -4 -4 -49 6 -99 24 -50 17 -91 23 -91 13 0 -9 20 -20 45 -24 27 -3 44 -19 43 -38 -3 -38 69 -41 108 -4 15 15 50 20 85 13 51 -10 59 -6 59 31 0 46 39 55 101 21 33 -17 39 -14 39 20 0 23 -13 41 -29 41 -28 0 -77 19 -267 102 -105 47 -104 47 -104 0z"/> <path d="M1505 1593 c-36 -10 -65 -27 -65 -37 0 -10 19 -13 43 -5 26 8 37 6 29 -7 -7 -12 4 -16 28 -10 49 13 62 31 44 58 -9 14 -36 14 -79 1z"/> <path d="M3271 1602 c-6 -10 -2 -43 9 -72 11 -29 15 -74 8 -100 -6 -26 -3 -63 8 -82 15 -28 21 -10 27 76 4 62 1 109 -6 104 -18 -11 -40 51 -26 74 6 10 7 18 1 18 -5 0 -15 -8 -21 -18z"/> <path d="M1304 1536 c-103 -23 -103 -68 1 -62 64 4 71 -1 83 -57 15 -76 3 -97 -58 -97 -26 0 -53 -9 -60 -20 -7 -12 -21 -15 -32 -9 -27 17 -101 -11 -87 -32 6 -11 0 -19 -15 -19 -19 -1 -19 -5 3 -19 36 -23 67 -6 47 25 -8 14 1 12 20 -3 29 -24 34 -24 35 0 0 18 11 14 32 -13 31 -40 31 -40 18 3 -10 36 -2 44 59 56 42 8 66 22 58 34 -8 14 1 17 27 9 28 -9 44 -2 54 22 13 33 17 32 51 -9 43 -53 60 -57 60 -14 0 16 -16 36 -35 43 -19 7 -42 23 -50 35 -10 14 -14 14 -15 -2 0 -14 -17 -19 -44 -12 l-43 12 42 15 c30 11 39 27 31 57 -6 22 -18 36 -26 31 -9 -5 -21 4 -27 20 -13 33 -10 33 -129 6z"/> <path d="M4740 1481 c0 -24 20 -40 60 -48 33 -7 60 -25 60 -41 0 -16 11 -33 25 -39 15 -6 11 -10 -10 -11 -19 -1 -33 -13 -30 -27 3 -15 -12 -23 -35 -20 -22 3 -74 9 -117 14 -42 5 -89 19 -105 32 -15 13 -28 17 -28 9 0 -8 -15 -3 -34 13 -23 18 -29 19 -19 2 10 -16 4 -25 -17 -25 -18 0 -27 9 -20 20 7 11 -2 20 -19 20 -17 0 -31 7 -31 15 0 8 -23 25 -50 38 -28 13 -50 16 -50 7 0 -9 14 -21 31 -28 17 -6 27 -19 22 -27 -5 -8 4 -27 19 -41 18 -17 28 -18 28 -3 0 12 15 7 33 -11 21 -22 50 -29 82 -21 29 8 44 5 36 -7 -6 -11 9 -20 34 -20 25 -1 66 -2 91 -2 25 0 41 -9 34 -20 -7 -11 -3 -20 9 -20 11 0 19 -10 16 -23 -3 -12 20 -26 50 -30 69 -10 73 28 5 45 -67 17 -64 40 5 35 30 -2 71 -4 91 -5 20 -1 31 -10 25 -21 -6 -10 -4 -23 6 -29 10 -7 24 28 32 77 12 82 18 89 77 95 100 10 100 76 0 77 -42 0 -128 13 -191 28 -107 26 -115 25 -115 -8z"/> <path d="M583 1468 c5 -26 29 -41 77 -48 57 -8 77 -24 107 -86 32 -65 41 -72 69 -50 24 20 28 20 17 1 -10 -16 -3 -25 18 -25 21 0 29 -11 22 -29 -6 -17 -1 -36 11 -43 13 -9 17 -5 8 9 -9 14 -2 23 17 23 17 0 31 -13 31 -30 0 -16 8 -30 19 -30 10 0 15 17 12 37 -6 29 3 36 40 32 26 -3 57 7 70 22 18 22 5 26 -75 20 -94 -7 -98 -5 -138 68 l-41 75 66 -5 c55 -5 67 1 67 33 0 33 -15 38 -125 38 -69 0 -160 6 -202 13 -68 11 -76 9 -70 -25z"/> <path d="M1692 1428 c-99 -35 -103 -40 -53 -54 23 -5 37 -3 31 6 -11 18 37 40 87 40 26 -1 27 -4 6 -18 -19 -12 -21 -21 -5 -31 12 -7 23 -6 24 3 0 9 4 32 8 51 8 41 4 41 -98 3z"/> <path d="M3815 1434 c-4 -12 -44 -22 -88 -22 -75 1 -79 -2 -70 -51 5 -28 13 -40 18 -26 5 14 17 20 26 14 10 -6 14 1 9 15 -7 16 7 28 35 30 25 3 63 8 85 13 22 4 56 0 75 -10 21 -11 35 -11 35 0 0 30 -116 65 -125 37z"/> <path d="M3960 1398 c0 -23 19 -66 42 -95 l43 -53 -15 50 c-9 28 -24 56 -35 63 -12 7 -9 16 6 21 14 4 19 19 11 32 -23 38 -52 28 -52 -18z"/> <path d="M2066 1365 c-23 -64 -76 -118 -106 -110 -26 6 -26 4 1 -19 17 -14 28 -44 25 -66 -6 -40 -6 -40 12 0 9 22 15 45 11 50 -3 6 25 33 62 60 38 28 68 67 68 89 1 38 1 38 -31 0 -27 -33 -30 -34 -20 -4 6 19 6 35 1 35 -6 0 -16 -16 -23 -35z"/> <path d="M2220 1365 l-70 -9 90 -28 c101 -31 154 -35 84 -7 -26 10 -41 28 -34 39 7 11 10 19 6 17 -3 -2 -37 -7 -76 -12z"/> <path d="M4088 1295 c-67 -113 -73 -126 -41 -87 17 20 44 32 59 26 20 -7 25 3 19 38 -11 55 -17 58 -37 23z"/> <path d="M3604 1286 c-19 -7 -20 -17 -3 -37 12 -15 16 -38 7 -52 -11 -17 -19 -13 -30 14 -12 31 -15 27 -15 -21 -2 -95 -8 -130 -26 -130 -9 0 -10 -14 -4 -31 16 -40 42 -14 50 51 4 28 15 56 26 63 10 8 20 27 22 43 3 16 11 48 18 72 14 42 4 48 -45 28z"/> <path d="M4986 1222 c-2 -28 7 -35 36 -27 22 6 59 -6 84 -27 24 -20 33 -24 19 -8 -36 40 -31 56 20 66 29 5 25 7 -11 5 -31 -3 -60 3 -66 12 -20 32 -79 17 -82 -21z"/> <path d="M2412 1163 c-9 -14 -9 -34 1 -43 24 -22 161 -49 140 -27 -16 17 -25 20 -82 25 -15 1 -31 18 -35 37 -5 27 -11 29 -24 8z"/> <path d="M4000 1110 c-10 -27 -37 -87 -59 -133 -43 -89 -54 -132 -19 -71 29 49 74 11 67 -56 -3 -28 1 -50 10 -50 8 0 16 27 17 60 1 33 -6 60 -15 60 -9 0 -22 13 -28 30 -7 17 -1 28 13 25 13 -3 24 11 24 31 0 20 14 44 30 55 20 12 22 18 5 19 -14 0 -25 13 -25 28 0 16 11 33 25 39 20 8 20 10 0 11 -15 1 -34 -20 -45 -48z"/> <path d="M1676 1083 c15 -9 29 -30 31 -45 9 -55 103 -198 126 -190 12 5 32 -1 45 -14 16 -16 22 -16 22 2 0 13 -9 24 -20 24 -11 0 -20 18 -20 40 0 22 -13 40 -30 40 -16 0 -30 11 -30 25 -1 17 -7 15 -22 -5 -17 -24 -20 -21 -12 15 6 25 3 45 -7 45 -9 0 -22 18 -29 40 -7 22 -28 40 -46 40 -26 -1 -28 -5 -8 -17z"/> <path d="M4243 1050 c-20 -46 -13 -70 23 -70 10 0 14 17 9 37 -6 22 1 36 17 36 14 0 21 -8 15 -18 -6 -10 7 -7 29 7 54 34 136 -2 168 -72 23 -52 64 -66 86 -30 7 12 2 19 -12 15 -14 -3 -32 22 -40 55 -7 33 -14 49 -16 35 -1 -14 -11 -25 -22 -25 -11 0 -18 11 -15 24 3 14 -26 26 -75 30 -44 3 -95 9 -113 13 -20 5 -41 -10 -54 -37z"/> <path d="M2423 1040 c-1 -27 6 -63 17 -80 16 -24 19 -22 20 13 0 24 7 47 15 52 8 5 4 6 -9 3 -13 -3 -28 9 -32 28 -6 22 -10 16 -11 -16z"/> <path d="M1980 1000 c0 -23 13 -40 31 -40 17 0 26 -8 20 -18 -6 -9 3 -29 19 -42 16 -13 25 -33 19 -42 -6 -10 -1 -18 12 -18 18 0 18 -7 0 -28 -25 -31 4 -64 38 -43 27 17 -63 210 -99 212 -21 2 -22 5 -5 12 35 14 31 47 -5 47 -17 0 -30 -18 -30 -40z"/> <path d="M4093 904 c-4 -8 -6 -42 -4 -77 4 -56 -3 -65 -57 -77 -34 -8 -51 -18 -37 -24 40 -15 29 -46 -16 -46 -22 0 -45 -13 -51 -29 -6 -16 -25 -23 -42 -17 -26 10 -27 5 -6 -34 21 -40 20 -44 -8 -34 -17 7 -32 4 -32 -7 0 -10 -10 -19 -21 -19 -12 0 -15 10 -8 21 9 15 2 16 -24 2 -20 -11 -54 -25 -74 -32 -30 -9 -33 -17 -14 -39 17 -22 17 -31 -3 -40 -14 -6 -8 -9 14 -6 23 3 39 20 37 39 -2 26 6 30 31 16 50 -27 378 257 350 302 -8 13 -6 18 7 10 22 -13 57 20 68 64 7 28 -95 53 -110 27z"/> <path d="M3387 848 c2 -24 7 -41 11 -36 5 4 19 -1 33 -13 17 -14 28 -11 37 13 9 22 4 29 -16 22 -19 -8 -25 0 -18 24 5 22 -2 35 -20 35 -18 0 -28 -17 -27 -45z"/> <path d="M1928 832 c-6 -16 -24 -34 -41 -40 -16 -6 -24 -3 -18 7 7 10 3 24 -9 31 -40 25 -19 -44 26 -87 58 -54 82 -55 54 -3 -15 28 -15 52 0 80 12 22 16 40 10 40 -6 0 -16 -13 -22 -28z"/> <path d="M3830 808 c-97 -128 -116 -168 -81 -168 18 0 28 9 21 20 -7 11 -3 20 9 20 11 0 21 14 21 30 0 17 9 30 20 30 36 0 97 65 86 93 -15 39 -31 34 -76 -25z"/> <path d="M2480 741 c0 -22 10 -41 21 -41 12 0 16 -9 9 -20 -7 -11 -2 -20 10 -20 12 0 16 -11 8 -25 -8 -14 5 -8 28 13 48 42 25 104 -30 83 -16 -6 -23 -2 -17 8 7 10 3 24 -9 31 -11 7 -20 -6 -20 -29z"/> <path d="M3370 747 c6 -8 -24 -30 -65 -50 -41 -20 -54 -31 -27 -25 30 8 42 5 34 -9 -7 -12 4 -19 27 -18 32 3 35 9 15 33 -20 24 -18 27 9 17 33 -12 41 31 11 54 -8 6 -9 5 -4 -2z"/> <path d="M2147 705 c2 -19 -8 -33 -22 -30 -14 3 -25 -3 -25 -13 0 -10 -23 -26 -50 -35 -50 -17 -49 -19 58 -102 122 -95 125 -97 125 -57 0 16 -34 49 -76 75 -95 59 -98 80 -6 52 48 -15 62 -27 45 -38 -31 -20 4 -23 51 -6 24 10 19 28 -30 100 -67 99 -74 105 -70 54z"/> <path d="M1972 689 c-32 -24 -32 -26 9 -39 52 -17 85 11 51 42 -18 17 -34 16 -60 -3z"/> <path d="M3630 559 c-33 -32 -55 -60 -50 -61 6 0 26 -4 45 -8 40 -7 48 22 10 35 -14 5 11 28 55 51 54 29 67 42 40 42 -22 0 -67 -27 -100 -59z"/> <path d="M2264 506 c-23 -45 -9 -91 23 -71 36 23 60 18 98 -20 43 -43 43 -48 5 -48 -16 0 -30 7 -30 16 0 10 -10 17 -22 17 -36 0 16 -54 63 -66 66 -17 62 18 -13 109 -86 104 -100 111 -124 63z"/> <path d="M2632 4304 c-17 -29 1 -132 25 -140 15 -5 21 21 18 74 -5 78 -20 102 -43 66z"/> </g> </svg> 